HIERARCHY
ROOT Hips
{
	OFFSET -338.882294 -555.210510 88.995560
	CHANNELS 6 Xposition Yposition Zposition Zrotation Yrotation Xrotation
	JOINT Spine
	{
		OFFSET 0.000000 2.080078 8.814247
		CHANNELS 6 Xposition Yposition Zposition Zrotation Yrotation Xrotation
		JOINT Spine1
		{
			OFFSET 0.000000 0.000000 8.844139
			CHANNELS 6 Xposition Yposition Zposition Zrotation Yrotation Xrotation
			JOINT Spine2
			{
				OFFSET 0.000000 0.000000 11.682266
				CHANNELS 6 Xposition Yposition Zposition Zrotation Yrotation Xrotation
				JOINT Spine3
				{
					OFFSET 0.000000 0.000000 11.746704
					CHANNELS 6 Xposition Yposition Zposition Zrotation Yrotation Xrotation
					JOINT Neck
					{
						OFFSET 0.000000 0.000000 17.658264
						CHANNELS 6 Xposition Yposition Zposition Zrotation Yrotation Xrotation
						JOINT Neck1
						{
							OFFSET 0.000000 0.000000 5.101517
							CHANNELS 6 Xposition Yposition Zposition Zrotation Yrotation Xrotation
							JOINT Head
							{
								OFFSET 0.000000 0.000000 5.101517
								CHANNELS 6 Xposition Yposition Zposition Zrotation Yrotation Xrotation
								JOINT HeadEnd
								{
									OFFSET 0.000000 0.000000 11.655090
									CHANNELS 6 Xposition Yposition Zposition Zrotation Yrotation Xrotation
									End Site
									{
										OFFSET 0.000000 0.000000 0.100006
									}
								}
							}
						}
					}
					JOINT RightShoulder
					{
						OFFSET -2.625397 0.000000 11.175217
						CHANNELS 6 Xposition Yposition Zposition Zrotation Yrotation Xrotation
						JOINT RightArm
						{
							OFFSET 0.000000 0.000000 10.434723
							CHANNELS 6 Xposition Yposition Zposition Zrotation Yrotation Xrotation
							JOINT RightForeArm
							{
								OFFSET 0.000000 0.000000 29.628418
								CHANNELS 6 Xposition Yposition Zposition Zrotation Yrotation Xrotation
								JOINT RightHand
								{
									OFFSET 0.000000 0.000000 22.857605
									CHANNELS 6 Xposition Yposition Zposition Zrotation Yrotation Xrotation
									JOINT RightHandThumb1
									{
										OFFSET -2.867310 -2.944275 3.959564
										CHANNELS 6 Xposition Yposition Zposition Zrotation Yrotation Xrotation
										JOINT RightHandThumb2
										{
											OFFSET 0.000000 0.000000 3.350403
											CHANNELS 6 Xposition Yposition Zposition Zrotation Yrotation Xrotation
											JOINT RightHandThumb3
											{
												OFFSET 0.000000 0.000000 3.756516
												CHANNELS 6 Xposition Yposition Zposition Zrotation Yrotation Xrotation
												JOINT RightHandThumb4
												{
													OFFSET 0.000000 0.000000 3.147339
													CHANNELS 6 Xposition Yposition Zposition Zrotation Yrotation Xrotation
													End Site
													{
														OFFSET 0.000000 0.000000 0.100006
													}
												}
											}
										}
									}
									JOINT RightHandIndex1
									{
										OFFSET -0.086761 -2.345276 10.030899
										CHANNELS 6 Xposition Yposition Zposition Zrotation Yrotation Xrotation
										JOINT RightHandIndex2
										{
											OFFSET 0.000000 0.000000 4.061096
											CHANNELS 6 Xposition Yposition Zposition Zrotation Yrotation Xrotation
											JOINT RightHandIndex3
											{
												OFFSET 0.000000 0.000000 3.248871
												CHANNELS 6 Xposition Yposition Zposition Zrotation Yrotation Xrotation
												JOINT RightHandIndex4
												{
													OFFSET 0.000000 0.000000 2.639709
													CHANNELS 6 Xposition Yposition Zposition Zrotation Yrotation Xrotation
													End Site
													{
														OFFSET 0.000000 0.000000 0.100006
													}
												}
											}
										}
									}
									JOINT RightHandMiddle1
									{
										OFFSET 0.104095 -0.006775 9.502945
										CHANNELS 6 Xposition Yposition Zposition Zrotation Yrotation Xrotation
										JOINT RightHandMiddle2
										{
											OFFSET 0.000000 0.000000 4.568726
											CHANNELS 6 Xposition Yposition Zposition Zrotation Yrotation Xrotation
											JOINT RightHandMiddle3
											{
												OFFSET 0.000000 0.000000 3.654984
												CHANNELS 6 Xposition Yposition Zposition Zrotation Yrotation Xrotation
												JOINT RightHandMiddle4
												{
													OFFSET 0.000000 0.000000 2.741241
													CHANNELS 6 Xposition Yposition Zposition Zrotation Yrotation Xrotation
													End Site
													{
														OFFSET 0.000000 0.000000 0.100006
													}
												}
											}
										}
									}
									JOINT RightHandRing1
									{
										OFFSET 0.086761 2.267456 8.921707
										CHANNELS 6 Xposition Yposition Zposition Zrotation Yrotation Xrotation
										JOINT RightHandRing2
										{
											OFFSET 0.000000 0.000000 4.061096
											CHANNELS 6 Xposition Yposition Zposition Zrotation Yrotation Xrotation
											JOINT RightHandRing3
											{
												OFFSET 0.000000 0.000000 3.654984
												CHANNELS 6 Xposition Yposition Zposition Zrotation Yrotation Xrotation
												JOINT RightHandRing4
												{
													OFFSET 0.000000 0.000000 2.741241
													CHANNELS 6 Xposition Yposition Zposition Zrotation Yrotation Xrotation
													End Site
													{
														OFFSET 0.000000 0.000000 0.100006
													}
												}
											}
										}
									}
									JOINT RightHandPinky1
									{
										OFFSET -0.173492 4.467224 7.976990
										CHANNELS 6 Xposition Yposition Zposition Zrotation Yrotation Xrotation
										JOINT RightHandPinky2
										{
											OFFSET 0.000000 0.000000 3.350403
											CHANNELS 6 Xposition Yposition Zposition Zrotation Yrotation Xrotation
											JOINT RightHandPinky3
											{
												OFFSET 0.000000 0.000000 2.842758
												CHANNELS 6 Xposition Yposition Zposition Zrotation Yrotation Xrotation
												JOINT RightHandPinky4
												{
													OFFSET 0.000000 0.000000 2.639709
													CHANNELS 6 Xposition Yposition Zposition Zrotation Yrotation Xrotation
													End Site
													{
														OFFSET 0.000000 0.000000 0.100006
													}
												}
											}
										}
									}
									JOINT RightForeArmEnd
									{
										OFFSET 0.000000 0.000000 0.000000
										CHANNELS 6 Xposition Yposition Zposition Zrotation Yrotation Xrotation
										End Site
										{
											OFFSET 0.000000 0.000000 0.100006
										}
									}
								}
								JOINT RightArmEnd
								{
									OFFSET 0.000000 0.000000 0.000000
									CHANNELS 6 Xposition Yposition Zposition Zrotation Yrotation Xrotation
									End Site
									{
										OFFSET 0.000000 0.000000 0.100006
									}
								}
							}
						}
					}
					JOINT LeftShoulder
					{
						OFFSET 2.625397 0.000000 11.175217
						CHANNELS 6 Xposition Yposition Zposition Zrotation Yrotation Xrotation
						JOINT LeftArm
						{
							OFFSET 0.000000 0.000000 10.813629
							CHANNELS 6 Xposition Yposition Zposition Zrotation Yrotation Xrotation
							JOINT LeftForeArm
							{
								OFFSET 0.000000 0.000000 28.724777
								CHANNELS 6 Xposition Yposition Zposition Zrotation Yrotation Xrotation
								JOINT LeftHand
								{
									OFFSET 0.644379 0.328857 25.716171
									CHANNELS 6 Xposition Yposition Zposition Zrotation Yrotation Xrotation
									JOINT LeftHandThumb1
									{
										OFFSET 2.867310 -2.944275 3.959564
										CHANNELS 6 Xposition Yposition Zposition Zrotation Yrotation Xrotation
										JOINT LeftHandThumb2
										{
											OFFSET 0.000000 0.000000 3.350403
											CHANNELS 6 Xposition Yposition Zposition Zrotation Yrotation Xrotation
											JOINT LeftHandThumb3
											{
												OFFSET 0.000000 0.000000 3.756516
												CHANNELS 6 Xposition Yposition Zposition Zrotation Yrotation Xrotation
												JOINT LeftHandThumb4
												{
													OFFSET 0.000000 0.000000 3.100006
													CHANNELS 6 Xposition Yposition Zposition Zrotation Yrotation Xrotation
													End Site
													{
														OFFSET 0.000000 0.000000 0.100006
													}
												}
											}
										}
									}
									JOINT LeftHandIndex1
									{
										OFFSET 0.086761 -2.345276 10.030899
										CHANNELS 6 Xposition Yposition Zposition Zrotation Yrotation Xrotation
										JOINT LeftHandIndex2
										{
											OFFSET 0.000000 0.000000 4.061096
											CHANNELS 6 Xposition Yposition Zposition Zrotation Yrotation Xrotation
											JOINT LeftHandIndex3
											{
												OFFSET 0.000000 0.000000 3.248871
												CHANNELS 6 Xposition Yposition Zposition Zrotation Yrotation Xrotation
												JOINT LeftHandIndex4
												{
													OFFSET 0.000000 0.000000 2.639709
													CHANNELS 6 Xposition Yposition Zposition Zrotation Yrotation Xrotation
													End Site
													{
														OFFSET 0.000000 0.000000 0.100006
													}
												}
											}
										}
									}
									JOINT LeftHandMiddle1
									{
										OFFSET -0.104095 -0.006775 9.502945
										CHANNELS 6 Xposition Yposition Zposition Zrotation Yrotation Xrotation
										JOINT LeftHandMiddle2
										{
											OFFSET 0.000000 0.000000 4.568726
											CHANNELS 6 Xposition Yposition Zposition Zrotation Yrotation Xrotation
											JOINT LeftHandMiddle3
											{
												OFFSET 0.000000 0.000000 3.654984
												CHANNELS 6 Xposition Yposition Zposition Zrotation Yrotation Xrotation
												JOINT LeftHandMiddle4
												{
													OFFSET 0.000000 0.000000 2.741241
													CHANNELS 6 Xposition Yposition Zposition Zrotation Yrotation Xrotation
													End Site
													{
														OFFSET 0.000000 0.000000 0.100006
													}
												}
											}
										}
									}
									JOINT LeftHandRing1
									{
										OFFSET -0.086761 2.267456 8.921707
										CHANNELS 6 Xposition Yposition Zposition Zrotation Yrotation Xrotation
										JOINT LeftHandRing2
										{
											OFFSET 0.000000 0.000000 4.061096
											CHANNELS 6 Xposition Yposition Zposition Zrotation Yrotation Xrotation
											JOINT LeftHandRing3
											{
												OFFSET 0.000000 0.000000 3.654984
												CHANNELS 6 Xposition Yposition Zposition Zrotation Yrotation Xrotation
												JOINT LeftHandRing4
												{
													OFFSET 0.000000 0.000000 2.741241
													CHANNELS 6 Xposition Yposition Zposition Zrotation Yrotation Xrotation
													End Site
													{
														OFFSET 0.000000 0.000000 0.100006
													}
												}
											}
										}
									}
									JOINT LeftHandPinky1
									{
										OFFSET 0.173492 4.467224 7.976990
										CHANNELS 6 Xposition Yposition Zposition Zrotation Yrotation Xrotation
										JOINT LeftHandPinky2
										{
											OFFSET 0.000000 0.000000 3.350403
											CHANNELS 6 Xposition Yposition Zposition Zrotation Yrotation Xrotation
											JOINT LeftHandPinky3
											{
												OFFSET 0.000000 0.000000 2.842758
												CHANNELS 6 Xposition Yposition Zposition Zrotation Yrotation Xrotation
												JOINT LeftHandPinky4
												{
													OFFSET 0.000000 0.000000 2.639709
													CHANNELS 6 Xposition Yposition Zposition Zrotation Yrotation Xrotation
													End Site
													{
														OFFSET 0.000000 0.000000 0.100006
													}
												}
											}
										}
									}
									JOINT LeftForeArmEnd
									{
										OFFSET 0.000000 0.000000 0.000000
										CHANNELS 6 Xposition Yposition Zposition Zrotation Yrotation Xrotation
										End Site
										{
											OFFSET 0.000000 0.000000 0.100006
										}
									}
								}
								JOINT LeftArmEnd
								{
									OFFSET 0.000000 0.000000 0.000000
									CHANNELS 6 Xposition Yposition Zposition Zrotation Yrotation Xrotation
									End Site
									{
										OFFSET 0.000000 0.000000 0.100006
									}
								}
							}
						}
					}
				}
			}
		}
	}
	JOINT RightUpLeg
	{
		OFFSET -11.289948 0.000000 0.000000
		CHANNELS 6 Xposition Yposition Zposition Zrotation Yrotation Xrotation
		JOINT RightLeg
		{
			OFFSET 0.000000 0.000000 -38.200321
			CHANNELS 6 Xposition Yposition Zposition Zrotation Yrotation Xrotation
			JOINT RightFoot
			{
				OFFSET 0.000000 0.000000 -39.900856
				CHANNELS 6 Xposition Yposition Zposition Zrotation Yrotation Xrotation
				JOINT RightToeBase
				{
					OFFSET 0.000000 -15.261658 0.000001
					CHANNELS 6 Xposition Yposition Zposition Zrotation Yrotation Xrotation
					JOINT RightToeBaseEnd
					{
						OFFSET 0.000000 -7.370728 0.000001
						CHANNELS 6 Xposition Yposition Zposition Zrotation Yrotation Xrotation
						End Site
						{
							OFFSET 0.000000 0.000000 0.100000
						}
					}
				}
				JOINT RightLegEnd
				{
					OFFSET 0.000000 0.000000 0.000000
					CHANNELS 6 Xposition Yposition Zposition Zrotation Yrotation Xrotation
					End Site
					{
						OFFSET 0.000000 0.000000 0.100000
					}
				}
			}
			JOINT RightUpLegEnd
			{
				OFFSET 0.000000 0.000000 0.000000
				CHANNELS 6 Xposition Yposition Zposition Zrotation Yrotation Xrotation
				End Site
				{
					OFFSET 0.000000 0.000000 0.099998
				}
			}
		}
	}
	JOINT LeftUpLeg
	{
		OFFSET 11.315674 0.000000 0.000000
		CHANNELS 6 Xposition Yposition Zposition Zrotation Yrotation Xrotation
		JOINT LeftLeg
		{
			OFFSET 0.000000 0.000000 -38.200321
			CHANNELS 6 Xposition Yposition Zposition Zrotation Yrotation Xrotation
			JOINT LeftFoot
			{
				OFFSET 0.000000 0.000000 -39.900856
				CHANNELS 6 Xposition Yposition Zposition Zrotation Yrotation Xrotation
				JOINT LeftToeBase
				{
					OFFSET 0.000000 -15.261658 0.000001
					CHANNELS 6 Xposition Yposition Zposition Zrotation Yrotation Xrotation
					JOINT LeftToeBaseEnd
					{
						OFFSET 0.000000 -7.539978 0.000001
						CHANNELS 6 Xposition Yposition Zposition Zrotation Yrotation Xrotation
						End Site
						{
							OFFSET 0.000000 0.000000 0.100000
						}
					}
				}
				JOINT LeftLegEnd
				{
					OFFSET 0.000000 0.000000 0.000000
					CHANNELS 6 Xposition Yposition Zposition Zrotation Yrotation Xrotation
					End Site
					{
						OFFSET 0.000000 0.000000 0.100000
					}
				}
			}
			JOINT LeftUpLegEnd
			{
				OFFSET 0.000000 0.000000 0.000000
				CHANNELS 6 Xposition Yposition Zposition Zrotation Yrotation Xrotation
				End Site
				{
					OFFSET 0.000000 0.000000 0.099998
				}
			}
		}
	}
}
MOTION
Frames: 2
Frame Time: 0.016667
18.072784 -13.041321 86.937286 -26.665226 2.223564 -14.602608 0.000015 2.080066 8.814248 0.837367 1.924932 11.720008 0.000004 -0.000007 8.844131 0.738120 1.678906 6.763714 -0.000014 0.000013 11.682282 0.635159 1.177793 13.000224 -0.000017 -0.000006 11.746695 0.348966 -0.159057 7.732847 0.000030 -0.000002 17.658274 6.450890 0.884558 -4.228521 -0.000002 0.000010 5.101530 7.372440 -2.331331 -8.385236 -0.000007 0.000016 5.101583 -0.821433 0.899326 -15.375314 -0.000000 0.000060 11.655061 0.000000 -0.000000 -0.000000 -2.625397 0.000018 11.175232 16.140032 -89.096082 1.963622 0.000042 -0.000015 10.434723 -51.025399 -35.414008 68.889220 0.000006 -0.000008 29.628426 14.306982 -0.493772 32.576376 -0.000023 -0.000090 22.857605 -26.123394 12.765208 -8.278412 -2.867363 -2.944305 3.959602 32.633636 -12.963889 58.544898 0.000007 0.000002 3.350399 -3.390273 3.021793 -6.580843 0.000009 -0.000004 3.756523 -2.317105 2.140053 -4.549721 0.000034 0.000005 3.147346 -0.000000 -0.000001 0.000002 -0.086784 -2.345268 10.030930 -4.447071 27.120793 12.613609 0.000009 -0.000011 4.061098 0.530559 0.027932 0.000284 -0.000012 -0.000021 3.248883 0.028838 -0.015549 0.000930 -0.000011 -0.000013 2.639699 0.000000 0.000000 -0.000000 0.104080 -0.006799 9.502983 1.057665 26.442229 9.249027 -0.000011 0.000020 4.568722 0.535483 -0.000045 -0.000072 -0.000006 -0.000029 3.654990 0.058787 0.000015 0.000023 -0.000008 0.000007 2.741261 -0.000001 0.000001 0.000000 0.086731 2.267426 8.921761 10.079302 26.198369 7.124976 -0.000002 0.000014 4.061108 -1.031628 -0.000058 0.000003 0.000007 0.000006 3.655005 -0.060520 -0.000008 0.043575 0.000000 0.000010 2.741269 -0.000001 0.000000 0.000000 -0.173508 4.467202 7.977013 19.381968 25.587110 5.143818 0.000007 -0.000029 3.350386 -2.051183 0.000005 -0.000034 0.000006 -0.000029 2.842751 -0.043095 -0.000003 -0.002611 -0.000005 0.000008 2.639699 0.000001 0.000001 -0.000000 -0.000029 -0.000005 -0.000007 -0.000000 -0.000003 0.000000 0.000015 0.000006 0.000010 -0.000000 0.000001 0.000001 2.625385 0.000022 11.175236 -13.737250 84.145431 -0.555538 0.000000 -0.000008 10.813637 40.872176 53.447945 56.498297 -0.000031 0.000036 28.724815 -5.434496 -1.219542 46.629025 0.644324 0.328846 25.716141 8.894797 -23.393678 -20.689365 2.867317 -2.944290 3.959564 -34.855364 32.057285 31.103029 0.000004 -0.000015 3.350430 44.214355 -6.418478 -74.281606 -0.000008 0.000000 3.756527 30.321313 -10.872692 -51.358006 -0.000012 0.000001 3.099990 -0.000001 0.000000 0.000000 0.086758 -2.345306 10.030891 154.927801 48.887192 -39.552714 -0.000017 0.000008 4.061087 -64.108278 81.614060 -72.436752 0.000013 0.000011 3.248874 -64.608351 81.614053 -72.430201 -0.000001 0.000001 2.639709 -0.000000 0.000000 0.000000 -0.104111 -0.006817 9.502968 165.095289 45.738635 -48.502884 0.000041 0.000022 4.568717 67.230529 93.345887 63.658620 0.000016 0.000027 3.655000 66.730538 93.345894 63.662124 0.000006 -0.000004 2.741263 0.000001 -0.000001 -0.000001 -0.086761 2.267435 8.921711 -2.391365 -39.372427 6.844220 -0.000015 -0.000026 4.061105 -1.084415 0.000003 -0.000102 -0.000013 0.000023 3.654981 -0.064839 -0.000005 -0.008638 -0.000014 0.000012 2.741257 -0.000002 -0.000001 -0.000000 0.173489 4.467200 7.976986 8.745864 -33.499612 -7.774733 0.000003 0.000023 3.350398 -2.045827 0.000007 -0.000008 0.000005 -0.000051 2.842767 -0.038239 0.000010 0.003561 -0.000005 0.000001 2.639719 -0.000000 0.000001 -0.000002 -0.000014 -0.000017 0.000002 0.000003 0.000001 -0.000001 -0.000004 -0.000002 0.000008 0.000001 0.000001 0.000005 -11.289993 -0.000007 -0.000001 -4.836752 11.898414 -0.651962 -0.000001 0.000058 -38.200344 -0.913180 0.284046 17.277590 -0.000010 -0.000079 -39.900867 -10.957979 -2.713580 20.617659 0.000029 -15.261702 0.000016 1.047287 1.014014 -23.283787 0.000004 -7.370750 0.000001 0.000004 0.000001 -0.000000 -0.000016 -0.000059 -0.000000 -0.000000 0.000001 -0.000002 -0.000013 -0.000018 -0.000004 0.000003 -0.000000 0.000001 11.315659 -0.000084 0.000002 9.322689 -3.898625 3.277764 -0.000013 -0.000022 -38.200325 -0.307808 0.176334 29.806259 -0.000004 -0.000017 -39.900871 24.239554 2.032171 8.876009 -0.000032 -15.261752 0.000008 -0.791573 -0.289382 -19.389713 -0.000026 -7.539978 0.000002 0.000000 -0.000000 0.000001 -0.000041 -0.000057 0.000002 -0.000001 0.000000 0.000001 -0.000008 -0.000002 -0.000007 0.000000 0.000000 -0.000002 
17.596680 -12.867126 86.877419 -27.678665 2.148341 -14.657506 -0.000007 2.080103 8.814246 0.844625 1.871327 11.674212 0.000010 0.000014 8.844147 0.729824 1.655778 6.748744 -0.000008 -0.000020 11.682273 0.621897 1.238853 13.112176 -0.000020 0.000025 11.746700 0.327637 -0.058411 7.724726 0.000017 -0.000026 17.658258 6.798891 1.467434 -4.254142 0.000000 -0.000006 5.101509 7.503557 -2.308977 -8.371057 -0.000009 0.000022 5.101561 -0.815923 0.967945 -15.166305 -0.000002 -0.000001 11.655089 0.000000 -0.000000 0.000000 -2.625403 0.000007 11.175181 16.270066 -89.002672 1.833725 -0.000048 0.000000 10.434746 -51.375846 -34.747867 69.008994 -0.000002 0.000008 29.628450 14.392291 -0.509431 32.417236 -0.000061 -0.000062 22.857574 -26.532951 13.014744 -8.260425 -2.867310 -2.944275 3.959618 32.633616 -12.963904 58.544898 0.000002 -0.000004 3.350386 -3.390266 3.021789 -6.580837 0.000008 0.000019 3.756498 -2.317112 2.140066 -4.549699 -0.000001 -0.000002 3.147332 -0.000001 0.000001 0.000001 -0.086746 -2.345247 10.030907 -4.412987 27.375376 12.459159 0.000006 -0.000016 4.061097 0.530324 -0.000220 0.000025 0.000013 -0.000002 3.248877 0.028590 -0.000007 0.000999 0.000010 0.000001 2.639732 -0.000000 0.000001 0.000002 0.104107 -0.006756 9.502945 1.098566 26.662166 9.132391 -0.000010 -0.000017 4.568729 0.536013 -0.000044 -0.000076 -0.000013 0.000001 3.654987 0.059038 0.000012 0.000023 0.000011 -0.000007 2.741260 0.000001 0.000003 0.000005 0.086769 2.267459 8.921761 10.116214 26.338856 7.091591 -0.000012 0.000013 4.061115 -1.032292 -0.000101 0.000006 0.000009 0.000006 3.655021 -0.060627 0.000001 0.046509 0.000003 -0.000008 2.741255 0.000001 -0.000001 0.000001 -0.173477 4.467220 7.976986 19.392814 25.607535 5.185783 0.000005 0.000023 3.350409 -2.053513 0.016242 -0.000623 0.000006 0.000019 2.842746 -0.044183 -0.008942 -0.002772 0.000014 0.000010 2.639712 0.000000 0.000001 0.000001 -0.000011 -0.000017 -0.000014 0.000001 -0.000000 -0.000002 -0.000011 -0.000008 0.000028 0.000001 -0.000001 -0.000002 2.625408 -0.000001 11.175224 -13.805207 84.343001 -0.571067 0.000008 0.000019 10.813644 40.991186 52.797335 56.524235 0.000004 -0.000008 28.724802 -5.338937 -1.260563 46.788572 0.644394 0.328873 25.716141 10.016457 -23.994916 -20.179275 2.867281 -2.944244 3.959579 -34.855388 32.057274 31.103042 0.000008 0.000015 3.350403 44.214345 -6.418479 -74.281613 -0.000046 0.000015 3.756527 30.321358 -10.872978 -51.358180 -0.000002 -0.000006 3.099990 0.000001 -0.000001 -0.000002 0.086769 -2.345306 10.030891 155.069828 48.736258 -39.960165 0.000017 0.000019 4.061099 -64.567588 81.634947 -72.900713 0.000034 -0.000004 3.248878 -65.066773 81.634735 -72.893568 0.000008 -0.000003 2.639728 0.000001 -0.000000 -0.000000 -0.104111 -0.006802 9.502953 165.196676 45.573303 -48.978464 -0.000011 0.000019 4.568734 65.640761 93.393719 62.065369 -0.000016 -0.000031 3.654973 65.141372 93.393705 62.069426 0.000011 -0.000019 2.741228 0.000002 0.000004 0.000000 -0.086765 2.267479 8.921719 -2.304268 -38.966673 7.327196 0.000008 -0.000028 4.061101 -1.085083 0.000093 -0.000103 -0.000004 0.000009 3.655008 -0.065337 -0.000004 -0.008636 -0.000008 0.000002 2.741248 -0.000001 -0.000000 0.000001 0.173500 4.467209 7.977001 8.810947 -33.064778 -7.089360 0.000000 -0.000023 3.350399 -2.045275 0.000009 -0.000010 0.000009 -0.000016 2.842777 -0.037776 0.000006 0.003481 -0.000005 0.000006 2.639704 -0.000000 -0.000001 0.000000 -0.000010 0.000005 0.000033 -0.000002 0.000000 -0.000000 0.000027 -0.000037 0.000008 -0.000002 0.000001 -0.000003 -11.289984 -0.000001 -0.000002 -3.686119 12.159917 -0.079637 -0.000016 -0.000024 -38.200344 -0.936377 0.274883 16.359198 0.000019 -0.000014 -39.900871 -10.154712 -2.535850 20.481121 -0.000001 -15.261690 0.000026 1.012084 1.004260 -23.533284 -0.000013 -7.370731 0.000001 0.000001 -0.000001 -0.000000 -0.000039 -0.000059 0.000001 -0.000000 0.000001 0.000001 -0.000023 -0.000007 -0.000009 0.000001 -0.000000 0.000000 11.315653 -0.000036 0.000000 9.833269 -4.335937 3.291607 -0.000037 0.000004 -38.200310 -0.289590 0.167681 30.071687 -0.000008 -0.000068 -39.900867 24.577413 2.495120 8.875389 -0.000024 -15.261799 0.000023 -0.855105 -0.290525 -19.464909 -0.000033 -7.539974 0.000002 -0.000001 -0.000001 0.000000 -0.000022 -0.000004 0.000001 0.000001 -0.000000 0.000000 -0.000038 -0.000003 -0.000008 0.000001 0.000000 0.000001 
